<?xml version="1.0" encoding="utf-8"?>
<!-- Created by sK1 2.0rc5 (https://sk1project.net/) -->
<svg xmlns="http://www.w3.org/2000/svg" height="16.0pt" viewBox="0 0 16.0 16.0" width="16.0pt" version="1.1" xmlns:xlink="http://www.w3.org/1999/xlink" id="c33780f0-bc68-11ef-8941-005056c00008">

<g>
	<g>
		<path style="fill-opacity:0.623529411765;fill-rule:evenodd;stroke:#ffed00;stroke-miterlimit:10.433;stroke-width:0.0;fill:#efa85d;" d="M 1.2353,3.7409 C 1.2339,3.7421 2.0567,3.8034 2.4674,3.8347 2.2519,8.012 5.1325,8.7312 7.3775,8.8128 11.4438,8.9177 11.632,6.0275 12.0393,4.452 14.4547,4.2028 15.6272,4.7755 15.6215,6.3614 15.3087,7.346 14.2665,8.2784 12.4439,7.3587 12.4439,7.3587 11.0674,10.0626 7.463,9.9161 3.8587,9.7696 2.3677,8.5043 1.6729,6.9813 0.9781,5.4584 1.2367,3.7397 1.2353,3.7409 Z M 2.9901,3.7766 C 5.3786,4.8954 6.4063,4.2827 7.6802,3.9231 9.7646,3.5501 10.5174,4.1095 11.2266,4.4026 11.1832,6.9465 9.0553,8.0253 7.5933,8.2384 5.0456,8.3183 3.2217,7.0397 2.9901,3.7766 Z" />
		<path style="fill-opacity:0.623529411765;fill-rule:evenodd;stroke:#ffed00;stroke-miterlimit:10.433;stroke-width:0.0;fill:#efa85d;" d="M 1.2097,10.2096 C 1.2097,10.2096 8.5728,10.7335 12.2544,10.9954 12.4264,11.1411 12.4819,11.2598 12.478,11.3562 12.4659,11.4623 12.4416,11.6076 12.2255,11.7279 12.2255,11.7279 1.2097,10.9821 1.1952,10.9821 1.1882,10.9821 0.9879,10.7947 0.997,10.5629 1.0061,10.3311 1.2097,10.2096 1.2097,10.2096 Z" />
	</g>
</g>
</svg>